<svg width="14" height="16" viewBox="0 0 14 16" fill="none" xmlns="http://www.w3.org/2000/svg">
<path d="M1.5 16C1.08333 16 0.729333 15.854 0.438 15.562C0.146 15.2707 0 14.9167 0 14.5V3H1.5V14.5H11V16H1.5ZM4.5 13C4.08333 13 3.72933 12.854 3.438 12.562C3.146 12.2707 3 11.9167 3 11.5V1.5C3 1.08333 3.146 0.729333 3.438 0.438C3.72933 0.146 4.08333 0 4.5 0H12.5C12.9167 0 13.2707 0.146 13.562 0.438C13.854 0.729333 14 1.08333 14 1.5V11.5C14 11.9167 13.854 12.2707 13.562 12.562C13.2707 12.854 12.9167 13 12.5 13H4.5ZM4.5 11.5H12.5V1.5H4.5V11.5Z" fill="#7D8287"/>
</svg>
