<svg width="18" height="18" viewBox="0 0 18 18" fill="none" xmlns="http://www.w3.org/2000/svg">
<path fill-rule="evenodd" clip-rule="evenodd" d="M8.99969 17C13.418 17 16.9997 13.4183 16.9997 8.99999C16.9997 4.58171 13.418 0.999993 8.99969 0.999993C4.58141 0.999993 0.999687 4.58171 0.999687 8.99999C0.999687 13.4183 4.58141 17 8.99969 17ZM9.74969 15.4572C12.7402 15.1136 15.1133 12.7405 15.4569 9.74999H11.3852C11.141 10.5275 10.5272 11.1413 9.74969 11.3855V15.4572ZM8.24969 15.4572C5.25919 15.1136 2.88607 12.7405 2.54249 9.74999H6.61414C6.85834 10.5275 7.47217 11.1413 8.24969 11.3855V15.4572ZM11.3852 8.24999H15.4569C15.085 5.01341 12.3359 2.49999 8.99969 2.49999C5.66349 2.49999 2.91434 5.01341 2.54249 8.24999H6.61414C6.9327 7.23572 7.88028 6.49999 8.99969 6.49999C10.1191 6.49999 11.0667 7.23572 11.3852 8.24999ZM8.99969 9.99999C9.55197 9.99999 9.99969 9.55228 9.99969 8.99999C9.99969 8.44771 9.55197 7.99999 8.99969 7.99999C8.4474 7.99999 7.99969 8.44771 7.99969 8.99999C7.99969 9.55228 8.4474 9.99999 8.99969 9.99999Z" fill="#0C0D0D"/>
<path fill-rule="evenodd" clip-rule="evenodd" d="M8.99969 1.31999C4.75814 1.31999 1.31969 4.75845 1.31969 8.99999C1.31969 13.2415 4.75814 16.68 8.99969 16.68C13.2412 16.68 16.6797 13.2415 16.6797 8.99999C16.6797 4.75845 13.2412 1.31999 8.99969 1.31999ZM0.679688 8.99999C0.679688 4.40498 4.40468 0.679993 8.99969 0.679993C13.5947 0.679993 17.3197 4.40498 17.3197 8.99999C17.3197 13.595 13.5947 17.32 8.99969 17.32C4.40468 17.32 0.679688 13.595 0.679688 8.99999ZM2.91193 7.92999H6.38987C6.81121 6.90342 7.8206 6.17999 8.99969 6.17999C10.1788 6.17999 11.1882 6.90342 11.6095 7.92999H15.0874C14.5809 5.02698 12.0478 2.81999 8.99969 2.81999C5.95157 2.81999 3.41851 5.02698 2.91193 7.92999ZM2.22458 8.21347C2.61477 4.81721 5.49903 2.17999 8.99969 2.17999C12.5003 2.17999 15.3846 4.81721 15.7748 8.21347L15.8158 8.56999H11.1503L11.0799 8.34588C10.8021 7.46114 9.97533 6.81999 8.99969 6.81999C8.02404 6.81999 7.19731 7.46114 6.91943 8.34588L6.84904 8.56999H2.18362L2.22458 8.21347ZM8.99969 8.31999C8.62413 8.31999 8.31969 8.62444 8.31969 8.99999C8.31969 9.37555 8.62413 9.67999 8.99969 9.67999C9.37524 9.67999 9.67969 9.37555 9.67969 8.99999C9.67969 8.62444 9.37524 8.31999 8.99969 8.31999ZM7.67969 8.99999C7.67969 8.27098 8.27067 7.67999 8.99969 7.67999C9.7287 7.67999 10.3197 8.27098 10.3197 8.99999C10.3197 9.72901 9.7287 10.32 8.99969 10.32C8.27067 10.32 7.67969 9.72901 7.67969 8.99999ZM2.18362 9.42999H6.84904L6.91943 9.6541C7.13228 10.3318 7.66791 10.8674 8.34558 11.0802L8.56969 11.1506L8.56969 15.8161L8.21316 15.7751C5.07486 15.4145 2.58514 12.9248 2.22458 9.78652L2.18362 9.42999ZM2.91193 10.07C3.35787 12.6254 5.3743 14.6418 7.92969 15.0877L7.92969 11.6098C7.23265 11.3238 6.67589 10.767 6.38986 10.07H2.91193ZM11.1503 9.42999H15.8158L15.7748 9.78652C15.4142 12.9248 12.9245 15.4145 9.78621 15.7751L9.42969 15.8161V11.1506L9.6538 11.0802C10.3315 10.8674 10.8671 10.3318 11.0799 9.6541L11.1503 9.42999ZM11.6095 10.07C11.3235 10.767 10.7667 11.3238 10.0697 11.6098V15.0877C12.6251 14.6418 14.6415 12.6254 15.0874 10.07H11.6095Z" fill="#0C0D0D"/>
</svg>
