<svg width="16" height="16" viewBox="0 0 16 16" fill="none" xmlns="http://www.w3.org/2000/svg">
<path d="M8 16C6.90267 16 5.868 15.7917 4.896 15.375C3.924 14.9583 3.07333 14.3853 2.344 13.656C1.61467 12.9267 1.04167 12.076 0.625 11.104C0.208333 10.132 0 9.09733 0 8C0 6.88867 0.208333 5.85033 0.625 4.885C1.04167 3.92033 1.61467 3.07333 2.344 2.344C3.07333 1.61467 3.924 1.04167 4.896 0.625C5.868 0.208333 6.90267 0 8 0C8.87467 0 9.708 0.132 10.5 0.396C11.292 0.66 12.0213 1.035 12.688 1.521L11.604 2.604C11.09 2.24267 10.5277 1.96833 9.917 1.781C9.30567 1.59367 8.66667 1.5 8 1.5C6.19467 1.5 4.66 2.132 3.396 3.396C2.132 4.66 1.5 6.19467 1.5 8C1.5 9.80533 2.132 11.34 3.396 12.604C4.66 13.868 6.19467 14.5 8 14.5C9.80533 14.5 11.34 13.868 12.604 12.604C13.868 11.34 14.5 9.80533 14.5 8C14.5 7.708 14.4793 7.41967 14.438 7.135C14.396 6.85033 14.3403 6.56933 14.271 6.292L15.458 5.104C15.6387 5.54867 15.7743 6.014 15.865 6.5C15.955 6.986 16 7.486 16 8C16 9.09733 15.7917 10.132 15.375 11.104C14.9583 12.076 14.3853 12.9267 13.656 13.656C12.9267 14.3853 12.0797 14.9583 11.115 15.375C10.1497 15.7917 9.11133 16 8 16ZM6.854 11.604L3.5 8.25L4.583 7.167L6.875 9.458L14.938 1.396L16 2.458L6.854 11.604Z" fill="#00A751"/>
</svg>
