<svg width="15" height="15" viewBox="0 0 15 15" fill="none" xmlns="http://www.w3.org/2000/svg">
<path fill-rule="evenodd" clip-rule="evenodd" d="M10.8136 9.75284C11.5591 8.78305 12.0022 7.56883 12.0022 6.25111C12.0022 3.07486 9.42736 0.5 6.25111 0.5C3.07486 0.5 0.5 3.07486 0.5 6.25111C0.5 9.42736 3.07486 12.0022 6.25111 12.0022C7.5689 12.0022 8.78316 11.559 9.75298 10.8135L13.44 14.5006L14.5007 13.4399L10.8136 9.75284ZM10.5022 6.25111C10.5022 8.59894 8.59894 10.5022 6.25111 10.5022C3.90329 10.5022 2 8.59894 2 6.25111C2 3.90329 3.90329 2 6.25111 2C8.59894 2 10.5022 3.90329 10.5022 6.25111Z" fill="#0C0D0D"/>
</svg>
