<svg width="20" height="20" viewBox="0 0 20 20" fill="none" xmlns="http://www.w3.org/2000/svg">
<path d="M7.71484 18.3398L7.38281 15.6641C7.28516 15.625 7.1875 15.5859 7.10938 15.5469C7.03125 15.5078 6.93359 15.4688 6.85547 15.4102C6.77734 15.3711 6.69922 15.332 6.62109 15.2734C6.54297 15.2344 6.46484 15.1758 6.38672 15.0977L3.92578 16.1523L1.62109 12.1875L3.76953 10.5664C3.76953 10.5273 3.75 10.4688 3.75 10.4297C3.75 10.3906 3.75 10.332 3.75 10.2734V9.72656C3.75 9.6875 3.75 9.62891 3.75 9.58984C3.75 9.55078 3.76953 9.49219 3.76953 9.43359L1.62109 7.8125L3.92578 3.84766L6.38672 4.90234C6.46484 4.84375 6.54297 4.78516 6.62109 4.72656C6.69922 4.6875 6.79688 4.62891 6.875 4.58984C6.95312 4.55078 7.03125 4.49219 7.10938 4.45312C7.1875 4.41406 7.28516 4.375 7.38281 4.33594L7.71484 1.66016H12.2852L12.6172 4.33594C12.6953 4.375 12.793 4.41406 12.8711 4.45312C12.9492 4.49219 13.0469 4.55078 13.1445 4.58984C13.2227 4.62891 13.3008 4.6875 13.3789 4.72656C13.457 4.78516 13.5352 4.84375 13.6133 4.90234L16.0742 3.84766L18.3789 7.8125L16.2305 9.43359C16.2305 9.49219 16.2305 9.55078 16.2305 9.58984C16.2305 9.62891 16.25 9.6875 16.25 9.72656V10.2734C16.25 10.332 16.2305 10.3906 16.2305 10.4297C16.2305 10.4688 16.2109 10.5273 16.2109 10.5664L18.3594 12.1875L16.0547 16.1523L13.6133 15.0977C13.5352 15.1758 13.4375 15.2344 13.3594 15.2734C13.2812 15.332 13.2031 15.3711 13.125 15.4102C13.0469 15.4688 12.9492 15.5078 12.8711 15.5469C12.793 15.5859 12.6953 15.625 12.6172 15.6641L12.2852 18.3398H7.71484ZM10.0391 12.9102C10.4297 12.9102 10.8008 12.8516 11.1523 12.6953C11.5039 12.5586 11.8164 12.3438 12.1094 12.0703C12.3828 11.7969 12.5977 11.4844 12.7344 11.1328C12.8711 10.7812 12.9492 10.4102 12.9492 10C12.9492 9.60938 12.8711 9.23828 12.7344 8.88672C12.5977 8.53516 12.3828 8.22266 12.1094 7.92969C11.8164 7.65625 11.5039 7.46094 11.1523 7.30469C10.8008 7.16797 10.4297 7.08984 10.0391 7.08984C9.62891 7.08984 9.25781 7.16797 8.90625 7.30469C8.55469 7.46094 8.24219 7.65625 7.96875 7.92969C7.67578 8.22266 7.46094 8.53516 7.32422 8.88672C7.1875 9.23828 7.12891 9.60938 7.12891 10C7.12891 10.4102 7.1875 10.7812 7.32422 11.1328C7.46094 11.4844 7.67578 11.7969 7.96875 12.0703C8.24219 12.3438 8.55469 12.5586 8.90625 12.6953C9.25781 12.8516 9.62891 12.9102 10.0391 12.9102ZM10.0391 11.25C9.86328 11.25 9.70703 11.2305 9.55078 11.1719C9.39453 11.1133 9.27734 11.0156 9.16016 10.8789C9.02344 10.7617 8.92578 10.6445 8.86719 10.4883C8.80859 10.332 8.78906 10.1758 8.78906 10C8.78906 9.84375 8.80859 9.6875 8.86719 9.53125C8.92578 9.375 9.02344 9.23828 9.16016 9.12109C9.27734 9.00391 9.39453 8.90625 9.55078 8.84766C9.70703 8.78906 9.86328 8.75 10.0391 8.75C10.1953 8.75 10.3516 8.78906 10.5078 8.84766C10.6641 8.90625 10.8008 9.00391 10.918 9.12109C11.0352 9.23828 11.1328 9.375 11.1914 9.53125C11.25 9.6875 11.2891 9.84375 11.2891 10C11.2891 10.1758 11.25 10.332 11.1914 10.4883C11.1328 10.6445 11.0352 10.7617 10.918 10.8789C10.8008 11.0156 10.6641 11.1133 10.5078 11.1719C10.3516 11.2305 10.1953 11.25 10.0391 11.25ZM9.16016 16.6602H10.8203L11.1133 14.4531C11.3086 14.4141 11.5234 14.3359 11.7188 14.2578C11.9141 14.1797 12.1094 14.082 12.3047 13.9648C12.4805 13.8672 12.6562 13.75 12.832 13.6133C12.9883 13.4961 13.1641 13.3398 13.3203 13.1836L15.3711 14.043L16.1914 12.6172L14.3945 11.2695C14.4336 11.1914 14.4531 11.0938 14.4727 10.9766C14.4922 10.8789 14.5117 10.7812 14.5508 10.6641C14.5508 10.5469 14.5703 10.4492 14.5703 10.332C14.5703 10.2344 14.5898 10.1172 14.5898 10C14.5898 9.88281 14.5703 9.78516 14.5703 9.66797C14.5703 9.57031 14.5508 9.45312 14.5508 9.33594C14.5117 9.23828 14.4922 9.14062 14.4727 9.02344C14.4531 8.92578 14.4336 8.82812 14.3945 8.73047L16.1914 7.38281L15.3711 5.95703L13.3203 6.83594C13.1641 6.67969 12.9883 6.54297 12.832 6.40625C12.6562 6.26953 12.4805 6.15234 12.3047 6.03516C12.1094 5.9375 11.9141 5.83984 11.7188 5.76172C11.5234 5.68359 11.3086 5.60547 11.1133 5.54688L10.8398 3.33984H9.17969L8.88672 5.54688C8.67188 5.60547 8.45703 5.68359 8.26172 5.76172C8.06641 5.83984 7.87109 5.9375 7.69531 6.03516C7.5 6.15234 7.32422 6.26953 7.16797 6.38672C6.99219 6.52344 6.83594 6.66016 6.67969 6.81641L4.62891 5.95703L3.80859 7.38281L5.60547 8.71094C5.56641 8.82812 5.52734 8.92578 5.50781 9.02344C5.48828 9.14062 5.46875 9.23828 5.44922 9.33594C5.42969 9.45312 5.41016 9.55078 5.41016 9.66797C5.41016 9.78516 5.41016 9.88281 5.41016 10C5.41016 10.1172 5.41016 10.2344 5.41016 10.332C5.41016 10.4492 5.42969 10.5469 5.44922 10.6445C5.46875 10.7617 5.48828 10.8594 5.50781 10.957C5.52734 11.0742 5.56641 11.1719 5.60547 11.2695L3.80859 12.6172L4.62891 14.043L6.67969 13.1641C6.83594 13.3203 6.99219 13.4766 7.16797 13.6133C7.32422 13.75 7.5 13.8672 7.69531 13.9648C7.87109 14.082 8.06641 14.1797 8.26172 14.2578C8.45703 14.3359 8.67188 14.4141 8.88672 14.4531L9.16016 16.6602Z" fill="#0C0D0D"/>
</svg>
