<svg width="16" height="16" viewBox="0 0 16 16" fill="none" xmlns="http://www.w3.org/2000/svg">
<path d="M8 12C8.208 12 8.385 11.927 8.531 11.781C8.677 11.635 8.75 11.458 8.75 11.25C8.75 11.042 8.677 10.865 8.531 10.719C8.385 10.573 8.208 10.5 8 10.5C7.792 10.5 7.615 10.573 7.469 10.719C7.323 10.865 7.25 11.042 7.25 11.25C7.25 11.458 7.323 11.635 7.469 11.781C7.615 11.927 7.792 12 8 12ZM7.25 9H8.75V4H7.25V9ZM8 16C6.90267 16 5.868 15.7917 4.896 15.375C3.924 14.9583 3.07333 14.3853 2.344 13.656C1.61467 12.9267 1.04167 12.076 0.625 11.104C0.208333 10.132 0 9.09733 0 8C0 6.88867 0.208333 5.85033 0.625 4.885C1.04167 3.92033 1.61467 3.07333 2.344 2.344C3.07333 1.61467 3.924 1.04167 4.896 0.625C5.868 0.208333 6.90267 0 8 0C9.11133 0 10.1497 0.208333 11.115 0.625C12.0797 1.04167 12.9267 1.61467 13.656 2.344C14.3853 3.07333 14.9583 3.92033 15.375 4.885C15.7917 5.85033 16 6.88867 16 8C16 9.09733 15.7917 10.132 15.375 11.104C14.9583 12.076 14.3853 12.9267 13.656 13.656C12.9267 14.3853 12.0797 14.9583 11.115 15.375C10.1497 15.7917 9.11133 16 8 16ZM8 14.5C9.80533 14.5 11.34 13.868 12.604 12.604C13.868 11.34 14.5 9.80533 14.5 8C14.5 6.19467 13.868 4.66 12.604 3.396C11.34 2.132 9.80533 1.5 8 1.5C6.19467 1.5 4.66 2.132 3.396 3.396C2.132 4.66 1.5 6.19467 1.5 8C1.5 9.80533 2.132 11.34 3.396 12.604C4.66 13.868 6.19467 14.5 8 14.5Z" fill="#D72A1D"/>
</svg>
