<svg width="82" height="32" viewBox="0 0 82 32" fill="none" xmlns="http://www.w3.org/2000/svg">
<path fill-rule="evenodd" clip-rule="evenodd" d="M19.5 6.03556C19.2908 6.6808 18.7417 7.11082 18.1265 7.11111H7.91161C7.35686 7.11104 6.86057 6.72647 6.66696 6.14667L5.50201 2.66667H2.66602L4.17766 7.18222C4.76335 8.91722 6.24938 10.0681 7.91161 10.0741H18.1265C19.8534 10.0709 21.396 8.86931 21.9933 7.06222L23.4638 2.66667H20.6344L19.5 6.03556ZM78.082 12.4281L72.7986 18.2053L78.666 24.5642H75.1462L70.656 19.7084V24.5642H68.0304V8.2725H70.656V16.7022L74.5622 12.4281H78.082ZM63.9233 11.8889V13.4622C62.6995 12.2385 61.0516 11.5537 59.3355 11.5556C55.7164 11.5556 53.1748 14.5396 53.1748 18.2222C53.1748 21.9049 55.7164 24.8889 59.3355 24.8889C61.0511 24.8924 62.6992 24.2089 63.9233 22.9862V24.5609H66.5448V11.8942L63.9233 11.8889ZM59.7288 22.2222C57.557 22.2222 55.7964 20.4313 55.7964 18.2222C55.7964 16.0131 57.557 14.2222 59.7288 14.2222C61.9005 14.2222 63.6611 16.0131 63.6611 18.2222C63.6611 19.2831 63.2468 20.3005 62.5093 21.0506C61.7719 21.8008 60.7717 22.2222 59.7288 22.2222ZM49.0677 13.4622V11.8889L51.6893 11.8942V24.5609H49.0677V22.9862C47.8436 24.2089 46.1956 24.8924 44.48 24.8889C40.8609 24.8889 38.3193 21.9049 38.3193 18.2222C38.3193 14.5396 40.8609 11.5556 44.48 11.5556C46.196 11.5537 47.8439 12.2385 49.0677 13.4622ZM40.9409 18.2222C40.9409 20.4313 42.7014 22.2222 44.8732 22.2222C45.9161 22.2222 46.9164 21.8008 47.6538 21.0506C48.3913 20.3005 48.8056 19.2831 48.8056 18.2222C48.8056 16.0131 47.045 14.2222 44.8732 14.2222C42.7014 14.2222 40.9409 16.0131 40.9409 18.2222ZM13.8077 11.5556C10.1156 11.5556 7.12268 14.5403 7.12268 18.2222C7.12268 21.9041 10.1156 24.8889 13.8077 24.8889C17.4997 24.8889 20.4927 21.9041 20.4927 18.2222C20.4927 16.4541 19.7884 14.7584 18.5347 13.5082C17.281 12.2579 15.5806 11.5556 13.8077 11.5556ZM13.8077 22.2222C11.5925 22.2222 9.79667 20.4314 9.79667 18.2222C9.79667 16.0131 11.5925 14.2222 13.8077 14.2222C16.0229 14.2222 17.8187 16.0131 17.8187 18.2222C17.8187 19.2831 17.3961 20.3005 16.6439 21.0506C15.8917 21.8008 14.8715 22.2222 13.8077 22.2222ZM31.8225 29.3333H29.0518L30.9918 24.0245L26.4349 11.5556H29.2055L32.3771 20.2339L35.5487 11.5556H38.3193L31.8225 29.3333Z" fill="#0C0D0D"/>
</svg>
